sporting_grotesque_gras.ufo
<glyph name="numbersign" format="1">
  <advance width="650"/>
  <unicode hex="0023"/>
  <outline>
    <contour>
      <point x="557" y="283" type="line"/>
      <point x="446" y="283" type="line"/>
      <point x="479" y="433" type="line"/>
      <point x="610" y="433" type="line"/>
      <point x="610" y="483" type="line"/>
      <point x="490" y="483" type="line"/>
      <point x="542" y="715" type="line"/>
      <point x="486" y="715" type="line"/>
      <point x="435" y="483" type="line"/>
      <point x="258" y="483" type="line"/>
      <point x="309" y="715" type="line"/>
      <point x="253" y="715" type="line"/>
      <point x="202" y="483" type="line"/>
      <point x="91" y="483" type="line"/>
      <point x="91" y="433" type="line"/>
      <point x="191" y="433" type="line"/>
      <point x="159" y="283" type="line"/>
      <point x="40" y="283" type="line"/>
      <point x="40" y="233" type="line"/>
      <point x="148" y="233" type="line"/>
      <point x="97" y="0" type="line"/>
      <point x="152" y="0" type="line"/>
      <point x="203" y="233" type="line"/>
      <point x="381" y="233" type="line"/>
      <point x="330" y="0" type="line"/>
      <point x="384" y="0" type="line"/>
      <point x="435" y="233" type="line"/>
      <point x="557" y="233" type="line"/>
    </contour>
    <contour>
      <point x="247" y="433" type="line"/>
      <point x="424" y="433" type="line"/>
      <point x="392" y="283" type="line"/>
      <point x="214" y="283" type="line"/>
    </contour>
  </outline>
</glyph>
<glyph name="parenright" format="1">
  <advance width="381"/>
  <unicode hex="0029"/>
  <outline>
    <contour>
      <point x="341" y="339" type="curve"/>
      <point x="341" y="606"/>
      <point x="142" y="768"/>
      <point x="20" y="787" type="curve"/>
      <point x="20" y="746" type="line"/>
      <point x="108" y="727"/>
      <point x="280" y="596"/>
      <point x="280" y="339" type="curve" smooth="yes"/>
      <point x="280" y="82"/>
      <point x="108" y="-49"/>
      <point x="20" y="-68" type="curve"/>
      <point x="20" y="-109" type="line"/>
      <point x="142" y="-90"/>
      <point x="341" y="72"/>
    </contour>
  </outline>
</glyph>
<glyph name="comma" format="1">
  <advance width="298"/>
  <unicode hex="002C"/>
  <outline>
    <contour>
      <point x="238" y="150" type="line"/>
      <point x="60" y="150" type="line"/>
      <point x="60" y="0" type="line"/>
      <point x="161" y="0" type="line"/>
      <point x="151" y="-97"/>
      <point x="39" y="-150"/>
      <point x="39" y="-150" type="curve"/>
      <point x="140" y="-176" type="line"/>
      <point x="140" y="-176"/>
      <point x="238" y="-98"/>
      <point x="238" y="25" type="curve" smooth="yes"/>
    </contour>
  </outline>
</glyph>
<glyph name="hyphen" format="1">
  <advance width="502"/>
  <unicode hex="002D"/>
  <outline>
    <contour>
      <point x="462" y="248" type="line"/>
      <point x="462" y="345" type="line"/>
      <point x="40" y="345" type="line"/>
      <point x="40" y="248" type="line"/>
    </contour>
  </outline>
</glyph>
<glyph name="zero" format="1">
  <advance width="880"/>
  <unicode hex="0030"/>
  <outline>
    <contour>
      <point x="63" y="389" type="curve"/>
      <point x="63" y="156"/>
      <point x="188" y="-13"/>
      <point x="440" y="-13" type="curve" smooth="yes"/>
      <point x="691" y="-13"/>
      <point x="816" y="156"/>
      <point x="816" y="389" type="curve" smooth="yes"/>
      <point x="816" y="623"/>
      <point x="691" y="791"/>
      <point x="440" y="791" type="curve" smooth="yes"/>
      <point x="188" y="791"/>
      <point x="63" y="623"/>
    </contour>
    <contour>
      <point x="248" y="389" type="curve"/>
      <point x="248" y="542"/>
      <point x="299" y="668"/>
      <point x="440" y="668" type="curve" smooth="yes"/>
      <point x="580" y="668"/>
      <point x="631" y="542"/>
      <point x="631" y="389" type="curve" smooth="yes"/>
      <point x="631" y="237"/>
      <point x="580" y="110"/>
      <point x="440" y="110" type="curve" smooth="yes"/>
      <point x="299" y="110"/>
      <point x="248" y="237"/>
    </contour>
  </outline>
</glyph>
<glyph name="four" format="1">
  <advance width="880"/>
  <unicode hex="0034"/>
  <outline>
    <contour>
      <point x="20" y="185" type="line"/>
      <point x="505" y="185" type="line"/>
      <point x="505" y="0" type="line"/>
      <point x="683" y="0" type="line"/>
      <point x="683" y="185" type="line"/>
      <point x="847" y="185" type="line"/>
      <point x="847" y="298" type="line"/>
      <point x="683" y="298" type="line"/>
      <point x="683" y="777" type="line"/>
      <point x="473" y="777" type="line"/>
      <point x="20" y="318" type="line"/>
    </contour>
    <contour>
      <point x="505" y="618" type="line"/>
      <point x="505" y="298" type="line"/>
      <point x="194" y="298" type="line"/>
    </contour>
  </outline>
</glyph>
<glyph name="six" format="1">
  <advance width="880"/>
  <unicode hex="0036"/>
  <outline>
    <contour>
      <point x="264" y="249" type="curve"/>
      <point x="264" y="249"/>
      <point x="293" y="110"/>
      <point x="446" y="110" type="curve"/>
      <point x="558" y="110"/>
      <point x="627" y="174"/>
      <point x="627" y="249" type="curve" smooth="yes"/>
      <point x="627" y="334"/>
      <point x="572" y="401"/>
      <point x="465" y="401" type="curve"/>
      <point x="280" y="401"/>
      <point x="264" y="249"/>
    </contour>
    <contour>
      <point x="473" y="668" type="curve" smooth="yes"/>
      <point x="319" y="668"/>
      <point x="239" y="542"/>
      <point x="245" y="370" type="curve"/>
      <point x="245" y="370"/>
      <point x="309" y="524"/>
      <point x="527" y="524" type="curve"/>
      <point x="669" y="524"/>
      <point x="813" y="440"/>
      <point x="813" y="268" type="curve" smooth="yes"/>
      <point x="813" y="102"/>
      <point x="655" y="-13"/>
      <point x="447" y="-13" type="curve" smooth="yes"/>
      <point x="196" y="-13"/>
      <point x="60" y="155"/>
      <point x="60" y="389" type="curve" smooth="yes"/>
      <point x="60" y="622"/>
      <point x="206" y="791"/>
      <point x="480" y="791" type="curve" smooth="yes"/>
      <point x="780" y="791"/>
      <point x="827" y="597"/>
      <point x="827" y="597" type="curve"/>
      <point x="643" y="547" type="line"/>
      <point x="643" y="547"/>
      <point x="630" y="668"/>
    </contour>
  </outline>
</glyph>
<glyph name="less" format="1">
  <advance width="650"/>
  <unicode hex="003C"/>
  <outline>
    <contour>
      <point x="75" y="287" type="line"/>
      <point x="75" y="235" type="line"/>
      <point x="528" y="-14" type="line"/>
      <point x="554" y="31" type="line"/>
      <point x="136" y="261" type="line"/>
      <point x="555" y="491" type="line"/>
      <point x="529" y="537" type="line"/>
    </contour>
    <contour>
      <point x="276" y="568" type="move" name="_top"/>
    </contour>
  </outline>
</glyph>
<glyph name="question" format="1">
  <advance width="792"/>
  <unicode hex="003F"/>
  <outline>
    <contour>
      <point x="772" y="566" type="curve"/>
      <point x="772" y="688"/>
      <point x="635" y="791"/>
      <point x="415" y="791" type="curve"/>
      <point x="39" y="791"/>
      <point x="20" y="562"/>
      <point x="20" y="562" type="curve"/>
      <point x="203" y="512" type="line"/>
      <point x="203" y="512"/>
      <point x="199" y="668"/>
      <point x="421" y="668" type="curve"/>
      <point x="524" y="668"/>
      <point x="588" y="623"/>
      <point x="588" y="555" type="curve"/>
      <point x="588" y="397"/>
      <point x="258" y="400"/>
      <point x="318" y="240" type="curve"/>
      <point x="436" y="240" type="line"/>
      <point x="436" y="365"/>
      <point x="772" y="344"/>
    </contour>
    <contour>
      <point x="288" y="0" type="line"/>
      <point x="466" y="0" type="line"/>
      <point x="466" y="150" type="line"/>
      <point x="288" y="150" type="line"/>
    </contour>
  </outline>
</glyph>
<glyph name="H" format="1">
  <advance width="1006"/>
  <unicode hex="0048"/>
  <outline>
    <contour>
      <point x="738" y="-1" type="line"/>
      <point x="916" y="-1" type="line"/>
      <point x="916" y="776" type="line"/>
      <point x="738" y="776" type="line"/>
      <point x="738" y="442" type="line"/>
      <point x="268" y="442" type="line"/>
      <point x="268" y="776" type="line"/>
      <point x="90" y="776" type="line"/>
      <point x="90" y="-1" type="line"/>
      <point x="268" y="-1" type="line"/>
      <point x="268" y="333" type="line"/>
      <point x="738" y="333" type="line"/>
    </contour>
  </outline>
</glyph>
<glyph name="K" format="1">
  <advance width="912"/>
  <unicode hex="004B"/>
  <outline>
    <contour>
      <point x="730" y="0" type="line"/>
      <point x="952" y="0" type="line"/>
      <point x="514" y="442" type="line"/>
      <point x="922" y="777" type="line"/>
      <point x="700" y="777" type="line"/>
      <point x="268" y="411" type="line"/>
      <point x="268" y="777" type="line"/>
      <point x="90" y="777" type="line"/>
      <point x="90" y="0" type="line"/>
      <point x="268" y="0" type="line"/>
      <point x="268" y="238" type="line"/>
      <point x="399" y="347" type="line"/>
    </contour>
  </outline>
</glyph>
<glyph name="P" format="1">
  <advance width="862"/>
  <unicode hex="0050"/>
  <outline>
    <contour>
      <point x="90" y="777" type="line"/>
      <point x="456" y="777" type="line" smooth="yes"/>
      <point x="722" y="777"/>
      <point x="842" y="703"/>
      <point x="842" y="555" type="curve" smooth="yes"/>
      <point x="842" y="407"/>
      <point x="722" y="333"/>
      <point x="456" y="333" type="curve" smooth="yes"/>
      <point x="268" y="333" type="line"/>
      <point x="268" y="0" type="line"/>
      <point x="90" y="0" type="line"/>
    </contour>
    <contour>
      <point x="268" y="442" type="line"/>
      <point x="466" y="442" type="line" smooth="yes"/>
      <point x="580" y="442"/>
      <point x="657" y="475"/>
      <point x="657" y="555" type="curve" smooth="yes"/>
      <point x="657" y="635"/>
      <point x="580" y="668"/>
      <point x="466" y="668" type="curve" smooth="yes"/>
      <point x="268" y="668" type="line"/>
    </contour>
  </outline>
</glyph>
<glyph name="Q" format="1">
  <advance width="1130"/>
  <unicode hex="0051"/>
  <outline>
    <contour>
      <point x="60" y="389" type="curve" smooth="yes"/>
      <point x="60" y="155"/>
      <point x="255" y="-13"/>
      <point x="555" y="-13" type="curve" smooth="yes"/>
      <point x="584" y="-13"/>
      <point x="611" y="-11"/>
      <point x="638" y="-8" type="curve"/>
      <point x="628" y="-13"/>
      <point x="612" y="-27"/>
      <point x="612" y="-73" type="curve" smooth="yes"/>
      <point x="613" y="-130"/>
      <point x="657" y="-204"/>
      <point x="809" y="-204" type="curve" smooth="yes"/>
      <point x="954" y="-204"/>
      <point x="1000" y="-134"/>
      <point x="1000" y="-134" type="curve"/>
      <point x="964" y="-13" type="line"/>
      <point x="964" y="-13"/>
      <point x="931" y="-73"/>
      <point x="807" y="-73" type="curve" smooth="yes"/>
      <point x="748" y="-73"/>
      <point x="719" y="-55"/>
      <point x="719" y="-15" type="curve" smooth="yes"/>
      <point x="719" y="3"/>
      <point x="737" y="10"/>
      <point x="741" y="11" type="curve" smooth="yes"/>
      <point x="933" y="66"/>
      <point x="1050" y="208"/>
      <point x="1050" y="389" type="curve" smooth="yes"/>
      <point x="1050" y="623"/>
      <point x="855" y="791"/>
      <point x="555" y="791" type="curve" smooth="yes"/>
      <point x="255" y="791"/>
      <point x="60" y="623"/>
    </contour>
    <contour>
      <point x="245" y="389" type="curve" smooth="yes"/>
      <point x="245" y="542"/>
      <point x="339" y="668"/>
      <point x="555" y="668" type="curve" smooth="yes"/>
      <point x="771" y="668"/>
      <point x="865" y="542"/>
      <point x="865" y="389" type="curve" smooth="yes"/>
      <point x="865" y="236"/>
      <point x="771" y="110"/>
      <point x="555" y="110" type="curve" smooth="yes"/>
      <point x="339" y="110"/>
      <point x="245" y="236"/>
    </contour>
    <contour>
      <point x="565" y="855" type="move" name="top"/>
    </contour>
  </outline>
</glyph>
<glyph name="U" format="1">
  <advance width="992"/>
  <unicode hex="0055"/>
  <outline>
    <contour>
      <point x="724" y="777" type="line"/>
      <point x="724" y="324" type="line"/>
      <point x="724" y="148"/>
      <point x="638" y="110"/>
      <point x="496" y="110" type="curve" smooth="yes"/>
      <point x="354" y="110"/>
      <point x="268" y="148"/>
      <point x="268" y="324" type="curve"/>
      <point x="268" y="777" type="line"/>
      <point x="90" y="777" type="line"/>
      <point x="90" y="324" type="line"/>
      <point x="90" y="99"/>
      <point x="226" y="-13"/>
      <point x="496" y="-13" type="curve" smooth="yes"/>
      <point x="766" y="-13"/>
      <point x="902" y="99"/>
      <point x="902" y="324" type="curve"/>
      <point x="902" y="777" type="line"/>
    </contour>
    <contour>
      <point x="525" y="855" type="move" name="top"/>
    </contour>
  </outline>
</glyph>
<glyph name="Y" format="1">
  <advance width="982"/>
  <unicode hex="0059"/>
  <outline>
    <contour>
      <point x="972" y="777" type="line"/>
      <point x="755" y="777" type="line"/>
      <point x="491" y="485" type="line"/>
      <point x="227" y="777" type="line"/>
      <point x="10" y="777" type="line"/>
      <point x="402" y="365" type="line"/>
      <point x="402" y="0" type="line"/>
      <point x="580" y="0" type="line"/>
      <point x="580" y="365" type="line"/>
    </contour>
    <contour>
      <point x="814" y="855" type="move" name="top"/>
    </contour>
  </outline>
</glyph>
<glyph name="Z" format="1">
  <advance width="818"/>
  <unicode hex="005A"/>
  <outline>
    <contour>
      <point x="798" y="110" type="line"/>
      <point x="255" y="110" type="line"/>
      <point x="798" y="658" type="line"/>
      <point x="798" y="777" type="line"/>
      <point x="20" y="777" type="line"/>
      <point x="20" y="668" type="line"/>
      <point x="563" y="668" type="line"/>
      <point x="20" y="120" type="line"/>
      <point x="20" y="0" type="line"/>
      <point x="798" y="0" type="line"/>
    </contour>
  </outline>
</glyph>
<glyph name="j" format="1">
  <advance width="345"/>
  <unicode hex="006A"/>
  <outline>
    <contour>
      <point x="90" y="5" type="line"/>
      <point x="90" y="-95"/>
      <point x="58" y="-127"/>
      <point x="0" y="-127" type="curve" smooth="yes"/>
      <point x="-77" y="-127"/>
      <point x="-104" y="-47"/>
      <point x="-104" y="-47" type="curve"/>
      <point x="-136" y="-154" type="line"/>
      <point x="-136" y="-154"/>
      <point x="-83" y="-237"/>
      <point x="37" y="-237" type="curve" smooth="yes"/>
      <point x="159" y="-237"/>
      <point x="255" y="-151"/>
      <point x="255" y="13" type="curve"/>
      <point x="255" y="555" type="line"/>
      <point x="90" y="555" type="line"/>
    </contour>
    <contour>
      <point x="90" y="635" type="line"/>
      <point x="255" y="635" type="line"/>
      <point x="255" y="762" type="line"/>
      <point x="90" y="762" type="line"/>
    </contour>
  </outline>
</glyph>
<glyph name="k" format="1">
  <advance width="708"/>
  <unicode hex="006B"/>
  <outline>
    <contour>
      <point x="90" y="0" type="line"/>
      <point x="255" y="0" type="line"/>
      <point x="255" y="138" type="line"/>
      <point x="330" y="210" type="line"/>
      <point x="537" y="0" type="line"/>
      <point x="738" y="0" type="line"/>
      <point x="424" y="298" type="line"/>
      <point x="698" y="555" type="line"/>
      <point x="498" y="555" type="line"/>
      <point x="255" y="311" type="line"/>
      <point x="255" y="792" type="line"/>
      <point x="255" y="792"/>
      <point x="181" y="777"/>
      <point x="90" y="777" type="curve"/>
    </contour>
  </outline>
</glyph>
<glyph name="l" format="1">
  <advance width="345"/>
  <unicode hex="006C"/>
  <outline>
    <contour>
      <point x="90" y="0" type="line"/>
      <point x="255" y="0" type="line"/>
      <point x="255" y="791" type="line"/>
      <point x="255" y="791"/>
      <point x="171" y="777"/>
      <point x="90" y="777" type="curve"/>
    </contour>
  </outline>
</glyph>
<glyph name="dieresis" format="1">
  <advance width="358"/>
  <unicode hex="00A8"/>
  <outline>
    <contour>
      <point x="-10" y="627" type="line"/>
      <point x="128" y="627" type="line"/>
      <point x="128" y="777" type="line"/>
      <point x="-10" y="777" type="line"/>
    </contour>
    <contour>
      <point x="230" y="627" type="line"/>
      <point x="368" y="627" type="line"/>
      <point x="368" y="777" type="line"/>
      <point x="230" y="777" type="line"/>
    </contour>
    <contour>
      <point x="179" y="613" type="move" name="_top"/>
    </contour>
  </outline>
</glyph>
<glyph name="guillemotleft" format="1">
  <advance width="689"/>
  <unicode hex="00AB"/>
  <outline>
    <contour>
      <point x="30" y="277" type="line"/>
      <point x="231" y="58" type="line"/>
      <point x="359" y="58" type="line"/>
      <point x="208" y="277" type="line"/>
      <point x="359" y="496" type="line"/>
      <point x="231" y="496" type="line"/>
    </contour>
    <contour>
      <point x="330" y="277" type="line"/>
      <point x="531" y="58" type="line"/>
      <point x="659" y="58" type="line"/>
      <point x="508" y="277" type="line"/>
      <point x="659" y="496" type="line"/>
      <point x="531" y="496" type="line"/>
    </contour>
  </outline>
</glyph>
<glyph name="degree" format="1">
  <advance width="348"/>
  <unicode hex="00B0"/>
  <outline>
    <contour>
      <point x="40" y="597" type="curve" smooth="yes"/>
      <point x="40" y="525"/>
      <point x="101" y="467"/>
      <point x="173" y="467" type="curve" smooth="yes"/>
      <point x="246" y="467"/>
      <point x="308" y="525"/>
      <point x="308" y="597" type="curve" smooth="yes"/>
      <point x="308" y="670"/>
      <point x="246" y="729"/>
      <point x="173" y="729" type="curve" smooth="yes"/>
      <point x="101" y="729"/>
      <point x="40" y="670"/>
    </contour>
    <contour>
      <point x="96" y="597" type="curve" smooth="yes"/>
      <point x="96" y="645"/>
      <point x="129" y="678"/>
      <point x="173" y="678" type="curve" smooth="yes"/>
      <point x="218" y="678"/>
      <point x="252" y="645"/>
      <point x="252" y="597" type="curve" smooth="yes"/>
      <point x="252" y="550"/>
      <point x="218" y="518"/>
      <point x="173" y="518" type="curve" smooth="yes"/>
      <point x="129" y="518"/>
      <point x="96" y="550"/>
    </contour>
  </outline>
</glyph>
<glyph name="paragraph" format="1">
  <advance width="836"/>
  <unicode hex="00B6"/>
  <outline>
    <contour>
      <point x="299" y="-223" type="line"/>
      <point x="464" y="-223" type="line"/>
      <point x="464" y="668" type="line"/>
      <point x="581" y="668" type="line"/>
      <point x="581" y="-223" type="line"/>
      <point x="746" y="-223" type="line"/>
      <point x="746" y="777" type="line"/>
      <point x="299" y="777" type="line" smooth="yes"/>
      <point x="145" y="777"/>
      <point x="20" y="718"/>
      <point x="20" y="555" type="curve" smooth="yes"/>
      <point x="20" y="409"/>
      <point x="141" y="338"/>
      <point x="299" y="338" type="curve"/>
    </contour>
  </outline>
</glyph>
<glyph name="ccedilla" format="1">
  <advance width="777"/>
  <unicode hex="00E7"/>
  <outline>
    <contour>
      <point x="567" y="225" type="line"/>
      <point x="567" y="225"/>
      <point x="565" y="97"/>
      <point x="414" y="97" type="curve" smooth="yes"/>
      <point x="296" y="97"/>
      <point x="232" y="169"/>
      <point x="232" y="278" type="curve" smooth="yes"/>
      <point x="232" y="377"/>
      <point x="285" y="458"/>
      <point x="400" y="458" type="curve" smooth="yes"/>
      <point x="577" y="458"/>
      <point x="547" y="263"/>
      <point x="547" y="263" type="curve"/>
      <point x="707" y="304" type="line"/>
      <point x="707" y="304"/>
      <point x="732" y="568"/>
      <point x="398" y="568" type="curve" smooth="yes"/>
      <point x="190" y="568"/>
      <point x="60" y="443"/>
      <point x="60" y="278" type="curve" smooth="yes"/>
      <point x="60" y="111"/>
      <point x="184" y="11"/>
      <point x="337" y="-9" type="curve"/>
      <point x="306" y="-96" type="line"/>
      <point x="358" y="-106" type="line"/>
      <point x="358" y="-106"/>
      <point x="371" y="-84"/>
      <point x="397" y="-84" type="curve" smooth="yes"/>
      <point x="422" y="-84"/>
      <point x="439" y="-100"/>
      <point x="439" y="-124" type="curve" smooth="yes"/>
      <point x="439" y="-152"/>
      <point x="413" y="-169"/>
      <point x="372" y="-169" type="curve" smooth="yes"/>
      <point x="309" y="-169"/>
      <point x="276" y="-122"/>
      <point x="276" y="-122" type="curve"/>
      <point x="258" y="-190" type="line"/>
      <point x="258" y="-190"/>
      <point x="298" y="-237"/>
      <point x="382" y="-237" type="curve" smooth="yes"/>
      <point x="450" y="-237"/>
      <point x="519" y="-198"/>
      <point x="519" y="-124" type="curve" smooth="yes"/>
      <point x="519" y="-71"/>
      <point x="484" y="-38"/>
      <point x="432" y="-38" type="curve" smooth="yes"/>
      <point x="399" y="-38"/>
      <point x="378" y="-55"/>
      <point x="378" y="-55" type="curve"/>
      <point x="393" y="-13" type="line"/>
      <point x="397" y="-13" type="line" smooth="yes"/>
      <point x="684" y="-13"/>
      <point x="727" y="184"/>
      <point x="727" y="184" type="curve"/>
    </contour>
  </outline>
</glyph>
<glyph name="eacute" format="1">
  <advance width="787"/>
  <unicode hex="00E9"/>
  <outline>
    <contour>
      <point x="541" y="356" type="line"/>
      <point x="541" y="356"/>
      <point x="527" y="463"/>
      <point x="394" y="463" type="curve"/>
      <point x="256" y="463"/>
      <point x="236" y="346"/>
      <point x="236" y="346" type="curve"/>
    </contour>
    <contour>
      <point x="226" y="268" type="line"/>
      <point x="227" y="182"/>
      <point x="279" y="97"/>
      <point x="414" y="97" type="curve" smooth="yes"/>
      <point x="566" y="97"/>
      <point x="567" y="225"/>
      <point x="567" y="225" type="curve"/>
      <point x="727" y="184" type="line"/>
      <point x="727" y="184"/>
      <point x="685" y="-13"/>
      <point x="397" y="-13" type="curve" smooth="yes"/>
      <point x="218" y="-13"/>
      <point x="60" y="90"/>
      <point x="60" y="278" type="curve" smooth="yes"/>
      <point x="60" y="443"/>
      <point x="190" y="568"/>
      <point x="397" y="568" type="curve"/>
      <point x="710" y="568"/>
      <point x="727" y="337"/>
      <point x="712" y="258" type="curve"/>
    </contour>
    <contour>
      <point x="452" y="791" type="line"/>
      <point x="316" y="647" type="line"/>
      <point x="433" y="647" type="line"/>
      <point x="662" y="791" type="line"/>
    </contour>
  </outline>
</glyph>
<glyph name="igrave" format="1">
  <advance width="345"/>
  <unicode hex="00EC"/>
  <outline>
    <contour>
      <point x="90" y="0" type="line"/>
      <point x="255" y="0" type="line"/>
      <point x="255" y="555" type="line"/>
      <point x="90" y="555" type="line"/>
    </contour>
    <contour>
      <point x="-78" y="791" type="line"/>
      <point x="151" y="648" type="line"/>
      <point x="268" y="648" type="line"/>
      <point x="132" y="791" type="line"/>
    </contour>
  </outline>
</glyph>
<glyph name="quoteleft" format="1">
  <advance width="288"/>
  <unicode hex="2018"/>
  <outline>
    <contour>
      <point x="50" y="481" type="line"/>
      <point x="228" y="481" type="line"/>
      <point x="228" y="631" type="line"/>
      <point x="127" y="631" type="line"/>
      <point x="137" y="728"/>
      <point x="249" y="781"/>
      <point x="249" y="781" type="curve"/>
      <point x="148" y="807" type="line"/>
      <point x="148" y="807"/>
      <point x="50" y="729"/>
      <point x="50" y="606" type="curve" smooth="yes"/>
    </contour>
  </outline>
</glyph>
<glyph name="dagger" format="1">
  <advance width="525"/>
  <unicode hex="2020"/>
  <outline>
    <contour>
      <point x="505" y="458" type="line"/>
      <point x="505" y="554" type="line"/>
      <point x="345" y="554" type="line"/>
      <point x="330" y="776" type="line"/>
      <point x="195" y="776" type="line"/>
      <point x="180" y="554" type="line"/>
      <point x="20" y="554" type="line"/>
      <point x="20" y="458" type="line"/>
      <point x="180" y="458" type="line"/>
      <point x="180" y="-223" type="line"/>
      <point x="345" y="-223" type="line"/>
      <point x="345" y="458" type="line"/>
    </contour>
  </outline>
</glyph>
<glyph name="guilsinglright" format="1">
  <advance width="359"/>
  <unicode hex="203A"/>
  <outline>
    <contour>
      <point x="128" y="496" type="line"/>
      <point x="0" y="496" type="line"/>
      <point x="151" y="277" type="line"/>
      <point x="0" y="58" type="line"/>
      <point x="128" y="58" type="line"/>
      <point x="329" y="277" type="line"/>
    </contour>
  </outline>
</glyph>
<glyph name="fraction" format="1">
  <advance width="459"/>
  <unicode hex="2044"/>
  <outline>
    <contour>
      <point x="411" y="703" type="line"/>
      <point x="0" y="-61" type="line"/>
      <point x="46" y="-84" type="line"/>
      <point x="459" y="679" type="line"/>
    </contour>
  </outline>
</glyph>
<glyph name="minus" format="1">
  <advance width="650"/>
  <unicode hex="2212"/>
  <outline>
    <contour>
      <point x="630" y="300" type="line"/>
      <point x="20" y="300" type="line"/>
      <point x="20" y="250" type="line"/>
      <point x="630" y="250" type="line"/>
    </contour>
    <contour>
      <point x="322" y="568" type="move" name="_top"/>
    </contour>
  </outline>
</glyph>
<glyph name="f_i" format="1">
  <advance width="764"/>
  <unicode hex="FB01"/>
  <outline>
    <contour>
      <point x="10" y="555" type="line"/>
      <point x="10" y="458" type="line"/>
      <point x="138" y="458" type="line"/>
      <point x="138" y="0" type="line"/>
      <point x="303" y="0" type="line"/>
      <point x="303" y="458" type="line"/>
      <point x="502" y="458" type="line"/>
      <point x="502" y="0" type="line"/>
      <point x="667" y="0" type="line"/>
      <point x="667" y="555" type="line"/>
      <point x="293" y="555" type="line"/>
      <point x="293" y="555"/>
      <point x="277" y="569"/>
      <point x="277" y="594" type="curve" smooth="yes"/>
      <point x="277" y="629"/>
      <point x="297" y="686"/>
      <point x="399" y="686" type="curve" smooth="yes"/>
      <point x="551" y="686"/>
      <point x="552" y="558"/>
      <point x="552" y="558" type="curve"/>
      <point x="724" y="602" type="line"/>
      <point x="724" y="602"/>
      <point x="671" y="791"/>
      <point x="391" y="791" type="curve" smooth="yes"/>
      <point x="211" y="791"/>
      <point x="120" y="705"/>
      <point x="120" y="628" type="curve" smooth="yes"/>
      <point x="120" y="576"/>
      <point x="157" y="556"/>
      <point x="159" y="555" type="curve"/>
    </contour>
  </outline>
</glyph>
<glyph name="Odieresis.smcp" format="1">
  <advance width="810"/>
  <outline>
    <contour>
      <point x="32" y="283" type="curve" smooth="yes"/>
      <point x="32" y="113"/>
      <point x="171" y="-8"/>
      <point x="385" y="-8" type="curve" smooth="yes"/>
      <point x="599" y="-8"/>
      <point x="738" y="113"/>
      <point x="738" y="283" type="curve" smooth="yes"/>
      <point x="738" y="453"/>
      <point x="599" y="576"/>
      <point x="385" y="576" type="curve" smooth="yes"/>
      <point x="171" y="576"/>
      <point x="32" y="453"/>
    </contour>
    <contour>
      <point x="208" y="283" type="curve" smooth="yes"/>
      <point x="208" y="370"/>
      <point x="262" y="440"/>
      <point x="385" y="440" type="curve" smooth="yes"/>
      <point x="509" y="440"/>
      <point x="562" y="370"/>
      <point x="562" y="283" type="curve" smooth="yes"/>
      <point x="562" y="197"/>
      <point x="509" y="126"/>
      <point x="385" y="126" type="curve" smooth="yes"/>
      <point x="262" y="126"/>
      <point x="208" y="197"/>
    </contour>
    <contour>
      <point x="214" y="642" type="line"/>
      <point x="352" y="642" type="line"/>
      <point x="352" y="792" type="line"/>
      <point x="214" y="792" type="line"/>
    </contour>
    <contour>
      <point x="454" y="642" type="line"/>
      <point x="592" y="642" type="line"/>
      <point x="592" y="792" type="line"/>
      <point x="454" y="792" type="line"/>
    </contour>
  </outline>
</glyph>
<glyph name="Q.alt" format="1">
  <advance width="1087"/>
  <outline>
    <contour>
      <point x="378" y="0" type="line"/>
      <point x="989" y="-266" type="line"/>
      <point x="1031" y="-126" type="line"/>
      <point x="575" y="13" type="line"/>
      <point x="783" y="13"/>
      <point x="1019" y="116"/>
      <point x="1019" y="388" type="curve" smooth="yes"/>
      <point x="1019" y="622"/>
      <point x="825" y="790"/>
      <point x="524" y="790" type="curve" smooth="yes"/>
      <point x="231" y="790"/>
      <point x="60" y="638"/>
      <point x="60" y="443" type="curve" smooth="yes"/>
      <point x="60" y="266"/>
      <point x="206" y="153"/>
      <point x="415" y="153" type="curve" smooth="yes"/>
      <point x="781" y="153"/>
      <point x="763" y="455"/>
      <point x="763" y="455" type="curve"/>
      <point x="579" y="504" type="line"/>
      <point x="579" y="504"/>
      <point x="603" y="276"/>
      <point x="408" y="276" type="curve" smooth="yes"/>
      <point x="298" y="276"/>
      <point x="246" y="351"/>
      <point x="246" y="437" type="curve" smooth="yes"/>
      <point x="246" y="555"/>
      <point x="340" y="668"/>
      <point x="524" y="668" type="curve" smooth="yes"/>
      <point x="739" y="668"/>
      <point x="834" y="541"/>
      <point x="834" y="388" type="curve" smooth="yes"/>
      <point x="834" y="236"/>
      <point x="739" y="110"/>
      <point x="522" y="110" type="curve" smooth="yes"/>
      <point x="443" y="110"/>
      <point x="378" y="129"/>
      <point x="378" y="129" type="curve"/>
    </contour>
  </outline>
</glyph>
<glyph name="S.alt" format="1">
  <advance width="921"/>
  <outline>
    <contour>
      <point x="137" y="460" type="line"/>
      <point x="414" y="371" type="line" smooth="yes"/>
      <point x="546" y="329"/>
      <point x="676" y="293"/>
      <point x="676" y="165" type="curve" smooth="yes"/>
      <point x="676" y="55"/>
      <point x="551" y="28"/>
      <point x="436" y="28" type="curve" smooth="yes"/>
      <point x="352" y="28"/>
      <point x="246" y="51"/>
      <point x="246" y="139" type="curve" smooth="yes"/>
      <point x="246" y="225"/>
      <point x="360" y="260"/>
      <point x="490" y="180" type="curve"/>
      <point x="446" y="323" type="line"/>
      <point x="257" y="403"/>
      <point x="60" y="300"/>
      <point x="60" y="153" type="curve" smooth="yes"/>
      <point x="60" y="-12"/>
      <point x="243" y="-94"/>
      <point x="436" y="-94" type="curve" smooth="yes"/>
      <point x="637" y="-94"/>
      <point x="861" y="-26"/>
      <point x="861" y="178" type="curve" smooth="yes"/>
      <point x="861" y="410"/>
      <point x="572" y="458"/>
      <point x="274" y="518" type="curve"/>
      <point x="784" y="651" type="line"/>
      <point x="742" y="791" type="line"/>
      <point x="137" y="559" type="line"/>
    </contour>
  </outline>
</glyph>
<glyph name="acute.case" format="1">
  <advance width="727"/>
  <outline>
    <contour>
      <point x="610" y="777" type="line"/>
      <point x="474" y="633" type="line"/>
      <point x="591" y="633" type="line"/>
      <point x="820" y="777" type="line"/>
    </contour>
    <contour>
      <point x="601" y="613" type="move" name="_top"/>
    </contour>
  </outline>
</glyph>
<glyph name="acute.case" format="1">
  <advance width="727"/>
  <outline>
    <contour>
      <point x="601" y="613" type="move" name="_top"/>
    </contour>
    <contour>
      <point x="610" y="777" type="line"/>
      <point x="474" y="633" type="line"/>
      <point x="591" y="633" type="line"/>
      <point x="820" y="777" type="line"/>
    </contour>
  </outline>
</glyph>
<glyph name="circumflex.case" format="1">
  <advance width="1204"/>
  <outline>
    <contour>
      <point x="526" y="777" type="line"/>
      <point x="340" y="633" type="line"/>
      <point x="437" y="633" type="line"/>
      <point x="601" y="695" type="line"/>
      <point x="765" y="633" type="line"/>
      <point x="862" y="633" type="line"/>
      <point x="676" y="777" type="line"/>
    </contour>
    <contour>
      <point x="601" y="613" type="move" name="_top"/>
    </contour>
  </outline>
</glyph>
<glyph name="dieresis.case" format="1">
  <advance width="358"/>
  <outline>
    <contour>
      <point x="179" y="613" type="move" name="_top"/>
    </contour>
    <contour>
      <point x="-10" y="627" type="line"/>
      <point x="128" y="627" type="line"/>
      <point x="128" y="777" type="line"/>
      <point x="-10" y="777" type="line"/>
    </contour>
    <contour>
      <point x="230" y="627" type="line"/>
      <point x="368" y="627" type="line"/>
      <point x="368" y="777" type="line"/>
      <point x="230" y="777" type="line"/>
    </contour>
  </outline>
</glyph>
<glyph name="one.susp_prop" format="1">
  <advance width="601"/>
  <outline>
    <contour>
      <point x="525" y="0" type="line"/>
      <point x="525" y="555" type="line"/>
      <point x="360" y="555" type="line"/>
      <point x="360" y="410"/>
      <point x="254" y="367"/>
      <point x="47" y="367" type="curve"/>
      <point x="47" y="230" type="line"/>
      <point x="335" y="230"/>
      <point x="358" y="357"/>
      <point x="360" y="376" type="curve"/>
      <point x="360" y="0" type="line"/>
    </contour>
  </outline>
</glyph>
<glyph name="ring.case" format="1">
  <advance width="1204"/>
  <outline>
    <contour>
      <point x="482" y="729" type="curve" smooth="yes"/>
      <point x="482" y="670"/>
      <point x="532" y="620"/>
      <point x="601" y="620" type="curve" smooth="yes"/>
      <point x="671" y="620"/>
      <point x="722" y="670"/>
      <point x="722" y="729" type="curve" smooth="yes"/>
      <point x="722" y="793"/>
      <point x="674" y="840"/>
      <point x="601" y="840" type="curve" smooth="yes"/>
      <point x="531" y="840"/>
      <point x="482" y="789"/>
    </contour>
    <contour>
      <point x="558" y="730" type="curve" smooth="yes"/>
      <point x="558" y="758"/>
      <point x="579" y="774"/>
      <point x="602" y="774" type="curve" smooth="yes"/>
      <point x="625" y="774"/>
      <point x="646" y="755"/>
      <point x="646" y="730" type="curve" smooth="yes"/>
      <point x="646" y="704"/>
      <point x="625" y="686"/>
      <point x="602" y="686" type="curve" smooth="yes"/>
      <point x="579" y="686"/>
      <point x="558" y="702"/>
    </contour>
    <contour>
      <point x="601" y="613" type="move" name="_top"/>
    </contour>
  </outline>
</glyph>
<glyph name="seven.susp_prop" format="1">
  <advance width="880"/>
  <outline>
    <contour>
      <point x="848" y="555" type="line"/>
      <point x="32" y="555" type="line"/>
      <point x="32" y="459" type="line"/>
      <point x="660" y="459" type="line"/>
      <point x="642" y="454"/>
      <point x="274" y="347"/>
      <point x="243" y="-222" type="curve"/>
      <point x="421" y="-222" type="line"/>
      <point x="435" y="330"/>
      <point x="848" y="426"/>
      <point x="848" y="426" type="curve"/>
    </contour>
  </outline>
</glyph>
<glyph name="three.susp_prop" format="1">
  <advance width="880"/>
  <outline>
    <contour>
      <point x="452" y="123" type="line" smooth="yes"/>
      <point x="561" y="123"/>
      <point x="636" y="91"/>
      <point x="636" y="7" type="curve" smooth="yes"/>
      <point x="636" y="-66"/>
      <point x="565" y="-113"/>
      <point x="463" y="-113" type="curve" smooth="yes"/>
      <point x="225" y="-113"/>
      <point x="243" y="101"/>
      <point x="243" y="101" type="curve"/>
      <point x="57" y="53" type="line"/>
      <point x="57" y="53"/>
      <point x="69" y="-236"/>
      <point x="456" y="-236" type="curve" smooth="yes"/>
      <point x="651" y="-236"/>
      <point x="820" y="-162"/>
      <point x="820" y="6" type="curve" smooth="yes"/>
      <point x="820" y="151"/>
      <point x="659" y="178"/>
      <point x="648" y="180" type="curve"/>
      <point x="662" y="183"/>
      <point x="800" y="214"/>
      <point x="800" y="344" type="curve" smooth="yes"/>
      <point x="800" y="472"/>
      <point x="669" y="568"/>
      <point x="468" y="568" type="curve" smooth="yes"/>
      <point x="134" y="568"/>
      <point x="98" y="305"/>
      <point x="98" y="305" type="curve"/>
      <point x="285" y="254" type="line"/>
      <point x="285" y="254"/>
      <point x="269" y="445"/>
      <point x="476" y="445" type="curve" smooth="yes"/>
      <point x="555" y="445"/>
      <point x="615" y="402"/>
      <point x="615" y="336" type="curve" smooth="yes"/>
      <point x="615" y="271"/>
      <point x="561" y="229"/>
      <point x="432" y="229" type="curve" smooth="yes"/>
      <point x="358" y="229" type="line"/>
      <point x="358" y="123" type="line"/>
    </contour>
  </outline>
</glyph>
<glyph name="tilde.case" format="1">
  <advance width="1204"/>
  <outline>
    <contour>
      <point x="601" y="613" type="move" name="_top"/>
    </contour>
    <contour>
      <point x="692" y="725" type="curve"/>
      <point x="625" y="725"/>
      <point x="600" y="791"/>
      <point x="515" y="791" type="curve"/>
      <point x="422" y="791"/>
      <point x="399" y="683"/>
      <point x="399" y="683" type="curve"/>
      <point x="439" y="627" type="line"/>
      <point x="439" y="627"/>
      <point x="453" y="693"/>
      <point x="511" y="693" type="curve"/>
      <point x="581" y="693"/>
      <point x="602" y="627"/>
      <point x="689" y="627" type="curve" smooth="yes"/>
      <point x="782" y="627"/>
      <point x="805" y="735"/>
      <point x="805" y="735" type="curve"/>
      <point x="765" y="791" type="line"/>
      <point x="765" y="791"/>
      <point x="752" y="725"/>
    </contour>
  </outline>
</glyph>
<glyph name="two.alt" format="1">
  <advance width="1064"/>
  <outline>
    <contour>
      <point x="60" y="311" type="curve" smooth="yes"/>
      <point x="60" y="46"/>
      <point x="267" y="-161"/>
      <point x="532" y="-161" type="curve" smooth="yes"/>
      <point x="797" y="-161"/>
      <point x="1004" y="46"/>
      <point x="1004" y="311" type="curve" smooth="yes"/>
      <point x="1004" y="576"/>
      <point x="797" y="783"/>
      <point x="532" y="783" type="curve" smooth="yes"/>
      <point x="267" y="783"/>
      <point x="60" y="576"/>
    </contour>
    <contour>
      <point x="116" y="310" type="curve" smooth="yes"/>
      <point x="116" y="541"/>
      <point x="301" y="726"/>
      <point x="532" y="726" type="curve" smooth="yes"/>
      <point x="763" y="726"/>
      <point x="948" y="541"/>
      <point x="948" y="310" type="curve" smooth="yes"/>
      <point x="948" y="79"/>
      <point x="763" y="-106"/>
      <point x="532" y="-106" type="curve" smooth="yes"/>
      <point x="301" y="-106"/>
      <point x="116" y="79"/>
    </contour>
    <contour>
      <point x="748" y="416" type="curve" smooth="yes"/>
      <point x="748" y="520"/>
      <point x="672" y="600"/>
      <point x="523" y="600" type="curve" smooth="yes"/>
      <point x="373" y="600"/>
      <point x="301" y="504"/>
      <point x="301" y="418" type="curve" smooth="yes"/>
      <point x="301" y="323"/>
      <point x="370" y="270"/>
      <point x="370" y="270" type="curve"/>
      <point x="466" y="298" type="line"/>
      <point x="466" y="298"/>
      <point x="398" y="340"/>
      <point x="398" y="414" type="curve" smooth="yes"/>
      <point x="398" y="475"/>
      <point x="434" y="528"/>
      <point x="521" y="528" type="curve" smooth="yes"/>
      <point x="611" y="528"/>
      <point x="649" y="476"/>
      <point x="649" y="413" type="curve" smooth="yes"/>
      <point x="649" y="230"/>
      <point x="298" y="84"/>
      <point x="298" y="84" type="curve"/>
      <point x="298" y="30" type="line"/>
      <point x="759" y="30" type="line"/>
      <point x="759" y="91" type="line"/>
      <point x="442" y="91" type="line"/>
      <point x="524" y="143"/>
      <point x="748" y="244"/>
    </contour>
  </outline>
</glyph>
<glyph name="two.susp_prop" format="1">
  <advance width="880"/>
  <outline>
    <contour>
      <point x="760" y="341" type="curve" smooth="yes"/>
      <point x="760" y="469"/>
      <point x="643" y="568"/>
      <point x="432" y="568" type="curve" smooth="yes"/>
      <point x="219" y="568"/>
      <point x="110" y="465"/>
      <point x="110" y="344" type="curve" smooth="yes"/>
      <point x="110" y="219"/>
      <point x="232" y="173"/>
      <point x="232" y="173" type="curve"/>
      <point x="420" y="224" type="line"/>
      <point x="420" y="224"/>
      <point x="283" y="242"/>
      <point x="283" y="344" type="curve" smooth="yes"/>
      <point x="283" y="410"/>
      <point x="336" y="458"/>
      <point x="429" y="458" type="curve" smooth="yes"/>
      <point x="536" y="458"/>
      <point x="585" y="399"/>
      <point x="585" y="337" type="curve" smooth="yes"/>
      <point x="585" y="128"/>
      <point x="85" y="100"/>
      <point x="85" y="100" type="curve"/>
      <point x="85" y="0" type="line"/>
      <point x="795" y="0" type="line"/>
      <point x="795" y="97" type="line"/>
      <point x="433" y="97" type="line"/>
      <point x="463" y="100"/>
      <point x="760" y="136"/>
    </contour>
  </outline>
</glyph>
